<?xml version="1.0" encoding="UTF-8" standalone="no"?>
<!DOCTYPE svg PUBLIC "-//W3C//DTD SVG 1.1//EN"
 "http://www.w3.org/Graphics/SVG/1.1/DTD/svg11.dtd">
<!-- Generated by graphviz version 2.38.0 (20140413.2041)
 -->
<!-- Title: G Pages: 1 -->
<svg width="1166pt" height="268pt"
 viewBox="0.00 0.00 1166.22 267.98" xmlns="http://www.w3.org/2000/svg" xmlns:xlink="http://www.w3.org/1999/xlink">
<g id="graph0" class="graph" transform="scale(1 1) rotate(0) translate(7.992 259.992)">
<title>G</title>
<polygon fill="#000000" stroke="none" points="-7.992,7.992 -7.992,-259.992 1158.23,-259.992 1158.23,7.992 -7.992,7.992"/>
<!-- ../package -->
<g id="node1" class="node"><title>../package</title>
<ellipse fill="none" stroke="#cfffac" cx="54.2469" cy="-18" rx="54.4949" ry="18"/>
<text text-anchor="middle" x="54.2469" y="-14.8493" font-family="Arial" font-size="14.00" fill="#cfffac">../package</text>
</g>
<!-- cli -->
<g id="node2" class="node"><title>cli</title>
<ellipse fill="none" stroke="#c6c5fe" cx="479.247" cy="-234" rx="27" ry="18"/>
<text text-anchor="middle" x="479.247" y="-230.849" font-family="Arial" font-size="14.00" fill="#c6c5fe">cli</text>
</g>
<!-- cli&#45;&gt;../package -->
<g id="edge1" class="edge"><title>cli&#45;&gt;../package</title>
<path fill="none" stroke="#757575" d="M452.689,-230.127C363.602,-219.849 78.3922,-181.549 32.2469,-108 20.162,-88.7385 28.4167,-63.2578 38.0733,-44.4979"/>
<polygon fill="#757575" stroke="#757575" points="41.2039,-46.0695 42.9964,-35.6274 35.0834,-42.6726 41.2039,-46.0695"/>
</g>
<!-- index -->
<g id="node3" class="node"><title>index</title>
<ellipse fill="none" stroke="#c6c5fe" cx="346.247" cy="-162" rx="33.0903" ry="18"/>
<text text-anchor="middle" x="346.247" y="-158.849" font-family="Arial" font-size="14.00" fill="#c6c5fe">index</text>
</g>
<!-- cli&#45;&gt;index -->
<g id="edge2" class="edge"><title>cli&#45;&gt;index</title>
<path fill="none" stroke="#757575" d="M458.757,-222.216C437.306,-210.926 403.326,-193.042 378.318,-179.879"/>
<polygon fill="#757575" stroke="#757575" points="379.696,-176.65 369.217,-175.089 376.436,-182.844 379.696,-176.65"/>
</g>
<!-- lib/argv -->
<g id="node4" class="node"><title>lib/argv</title>
<ellipse fill="none" stroke="#cfffac" cx="514.247" cy="-162" rx="41.2877" ry="18"/>
<text text-anchor="middle" x="514.247" y="-158.849" font-family="Arial" font-size="14.00" fill="#cfffac">lib/argv</text>
</g>
<!-- cli&#45;&gt;lib/argv -->
<g id="edge3" class="edge"><title>cli&#45;&gt;lib/argv</title>
<path fill="none" stroke="#757575" d="M487.365,-216.765C491.545,-208.404 496.739,-198.016 501.444,-188.606"/>
<polygon fill="#757575" stroke="#757575" points="504.588,-190.143 505.93,-179.633 498.327,-187.012 504.588,-190.143"/>
</g>
<!-- lib/config -->
<g id="node5" class="node"><title>lib/config</title>
<ellipse fill="none" stroke="#cfffac" cx="215.247" cy="-90" rx="47.915" ry="18"/>
<text text-anchor="middle" x="215.247" y="-86.8493" font-family="Arial" font-size="14.00" fill="#cfffac">lib/config</text>
</g>
<!-- cli&#45;&gt;lib/config -->
<g id="edge4" class="edge"><title>cli&#45;&gt;lib/config</title>
<path fill="none" stroke="#757575" d="M453.004,-229.171C417.285,-223.077 352.311,-208.794 304.247,-180 276.199,-163.197 250.535,-135.633 234.049,-115.627"/>
<polygon fill="#757575" stroke="#757575" points="236.561,-113.166 227.565,-107.569 231.107,-117.554 236.561,-113.166"/>
</g>
<!-- lib/errors -->
<g id="node6" class="node"><title>lib/errors</title>
<ellipse fill="none" stroke="#cfffac" cx="621.247" cy="-162" rx="47.3385" ry="18"/>
<text text-anchor="middle" x="621.247" y="-158.849" font-family="Arial" font-size="14.00" fill="#cfffac">lib/errors</text>
</g>
<!-- cli&#45;&gt;lib/errors -->
<g id="edge5" class="edge"><title>cli&#45;&gt;lib/errors</title>
<path fill="none" stroke="#757575" d="M500.506,-222.52C522.653,-211.603 557.776,-194.288 584.444,-181.142"/>
<polygon fill="#757575" stroke="#757575" points="586.067,-184.245 593.489,-176.684 582.972,-177.966 586.067,-184.245"/>
</g>
<!-- lib/gen&#45;keys -->
<g id="node7" class="node"><title>lib/gen&#45;keys</title>
<ellipse fill="none" stroke="#cfffac" cx="747.247" cy="-162" rx="61.094" ry="18"/>
<text text-anchor="middle" x="747.247" y="-158.849" font-family="Arial" font-size="14.00" fill="#cfffac">lib/gen&#45;keys</text>
</g>
<!-- cli&#45;&gt;lib/gen&#45;keys -->
<g id="edge6" class="edge"><title>cli&#45;&gt;lib/gen&#45;keys</title>
<path fill="none" stroke="#757575" d="M503.979,-226.54C546.764,-215.365 635.533,-192.179 693.186,-177.12"/>
<polygon fill="#757575" stroke="#757575" points="694.426,-180.414 703.217,-174.5 692.657,-173.641 694.426,-180.414"/>
</g>
<!-- lib/helpers -->
<g id="node8" class="node"><title>lib/helpers</title>
<ellipse fill="none" stroke="#c6c5fe" cx="95.2469" cy="-90" rx="53.9364" ry="18"/>
<text text-anchor="middle" x="95.2469" y="-86.8493" font-family="Arial" font-size="14.00" fill="#c6c5fe">lib/helpers</text>
</g>
<!-- cli&#45;&gt;lib/helpers -->
<g id="edge7" class="edge"><title>cli&#45;&gt;lib/helpers</title>
<path fill="none" stroke="#757575" d="M453.056,-229.028C410.984,-222.141 326.18,-206.16 258.247,-180 210.392,-161.572 159.084,-131.689 127.085,-111.698"/>
<polygon fill="#757575" stroke="#757575" points="128.915,-108.714 118.59,-106.339 125.18,-114.635 128.915,-108.714"/>
</g>
<!-- lib/notify -->
<g id="node9" class="node"><title>lib/notify</title>
<ellipse fill="none" stroke="#cfffac" cx="522.247" cy="-90" rx="45.1706" ry="18"/>
<text text-anchor="middle" x="522.247" y="-86.8493" font-family="Arial" font-size="14.00" fill="#cfffac">lib/notify</text>
</g>
<!-- cli&#45;&gt;lib/notify -->
<g id="edge8" class="edge"><title>cli&#45;&gt;lib/notify</title>
<path fill="none" stroke="#757575" d="M461.982,-219.788C450.876,-210.137 437.409,-195.985 431.247,-180 425.491,-165.071 423.273,-157.872 431.247,-144 441.489,-126.183 460.281,-113.794 478.14,-105.502"/>
<polygon fill="#757575" stroke="#757575" points="479.548,-108.706 487.344,-101.531 476.776,-102.278 479.548,-108.706"/>
</g>
<!-- lib/opml -->
<g id="node10" class="node"><title>lib/opml</title>
<ellipse fill="none" stroke="#cfffac" cx="869.247" cy="-162" rx="43.4753" ry="18"/>
<text text-anchor="middle" x="869.247" y="-158.849" font-family="Arial" font-size="14.00" fill="#cfffac">lib/opml</text>
</g>
<!-- cli&#45;&gt;lib/opml -->
<g id="edge9" class="edge"><title>cli&#45;&gt;lib/opml</title>
<path fill="none" stroke="#757575" d="M505.825,-230.301C563.237,-224.152 702.893,-207.47 817.247,-180 820.628,-179.188 824.105,-178.26 827.582,-177.267"/>
<polygon fill="#757575" stroke="#757575" points="828.738,-180.574 837.301,-174.335 826.716,-173.873 828.738,-180.574"/>
</g>
<!-- lib/remote -->
<g id="node11" class="node"><title>lib/remote</title>
<ellipse fill="none" stroke="#cfffac" cx="982.247" cy="-162" rx="52.2797" ry="18"/>
<text text-anchor="middle" x="982.247" y="-158.849" font-family="Arial" font-size="14.00" fill="#cfffac">lib/remote</text>
</g>
<!-- cli&#45;&gt;lib/remote -->
<g id="edge10" class="edge"><title>cli&#45;&gt;lib/remote</title>
<path fill="none" stroke="#757575" d="M506.126,-231.211C575.427,-226.291 765.642,-210.825 921.247,-180 925.611,-179.135 930.12,-178.119 934.619,-177.021"/>
<polygon fill="#757575" stroke="#757575" points="935.574,-180.39 944.39,-174.514 933.834,-173.609 935.574,-180.39"/>
</g>
<!-- lib/server -->
<g id="node12" class="node"><title>lib/server</title>
<ellipse fill="none" stroke="#cfffac" cx="1101.25" cy="-162" rx="48.9854" ry="18"/>
<text text-anchor="middle" x="1101.25" y="-158.849" font-family="Arial" font-size="14.00" fill="#cfffac">lib/server</text>
</g>
<!-- cli&#45;&gt;lib/server -->
<g id="edge11" class="edge"><title>cli&#45;&gt;lib/server</title>
<path fill="none" stroke="#757575" d="M506.219,-232.293C587.857,-229.766 839.202,-219.116 1043.25,-180 1047.42,-179.2 1051.73,-178.227 1056.02,-177.157"/>
<polygon fill="#757575" stroke="#757575" points="1057.17,-180.473 1065.93,-174.518 1055.37,-173.708 1057.17,-180.473"/>
</g>
<!-- lib/store -->
<g id="node13" class="node"><title>lib/store</title>
<ellipse fill="none" stroke="#cfffac" cx="629.247" cy="-90" rx="43.5243" ry="18"/>
<text text-anchor="middle" x="629.247" y="-86.8493" font-family="Arial" font-size="14.00" fill="#cfffac">lib/store</text>
</g>
<!-- cli&#45;&gt;lib/store -->
<g id="edge12" class="edge"><title>cli&#45;&gt;lib/store</title>
<path fill="none" stroke="#757575" d="M469.993,-216.904C460.318,-197.709 448.553,-165.524 464.247,-144 464.306,-143.919 537.279,-120.5 586.147,-104.823"/>
<polygon fill="#757575" stroke="#757575" points="587.419,-108.091 595.872,-101.704 585.281,-101.425 587.419,-108.091"/>
</g>
<!-- index&#45;&gt;lib/config -->
<g id="edge13" class="edge"><title>index&#45;&gt;lib/config</title>
<path fill="none" stroke="#757575" d="M323.428,-148.807C303.367,-138.087 273.843,-122.311 250.705,-109.947"/>
<polygon fill="#757575" stroke="#757575" points="252.335,-106.85 241.865,-105.224 249.035,-113.023 252.335,-106.85"/>
</g>
<!-- index&#45;&gt;lib/helpers -->
<g id="edge14" class="edge"><title>index&#45;&gt;lib/helpers</title>
<path fill="none" stroke="#757575" d="M316.963,-152.833C274.773,-141.067 196.326,-119.189 144.96,-104.864"/>
<polygon fill="#757575" stroke="#757575" points="145.639,-101.42 135.066,-102.105 143.758,-108.163 145.639,-101.42"/>
</g>
<!-- index&#45;&gt;lib/notify -->
<g id="edge15" class="edge"><title>index&#45;&gt;lib/notify</title>
<path fill="none" stroke="#757575" d="M372.216,-150.671C401.11,-139.179 448.156,-120.468 481.864,-107.061"/>
<polygon fill="#757575" stroke="#757575" points="483.428,-110.206 491.426,-103.258 480.841,-103.702 483.428,-110.206"/>
</g>
<!-- index&#45;&gt;lib/store -->
<g id="edge17" class="edge"><title>index&#45;&gt;lib/store</title>
<path fill="none" stroke="#757575" d="M376.959,-154.78C421.255,-145.615 505.525,-127.454 576.247,-108 579.61,-107.075 583.078,-106.073 586.555,-105.034"/>
<polygon fill="#757575" stroke="#757575" points="587.765,-108.323 596.297,-102.041 585.71,-101.632 587.765,-108.323"/>
</g>
<!-- lib/pollFeeds/index -->
<g id="node14" class="node"><title>lib/pollFeeds/index</title>
<ellipse fill="none" stroke="#c6c5fe" cx="370.247" cy="-90" rx="88.6268" ry="18"/>
<text text-anchor="middle" x="370.247" y="-86.8493" font-family="Arial" font-size="14.00" fill="#c6c5fe">lib/pollFeeds/index</text>
</g>
<!-- index&#45;&gt;lib/pollFeeds/index -->
<g id="edge16" class="edge"><title>index&#45;&gt;lib/pollFeeds/index</title>
<path fill="none" stroke="#757575" d="M352.057,-144.055C354.758,-136.176 358.035,-126.617 361.06,-117.794"/>
<polygon fill="#757575" stroke="#757575" points="364.391,-118.87 364.324,-108.275 357.77,-116.6 364.391,-118.87"/>
</g>
<!-- lib/helpers&#45;&gt;../package -->
<g id="edge18" class="edge"><title>lib/helpers&#45;&gt;../package</title>
<path fill="none" stroke="#757575" d="M85.3219,-72.055C80.4873,-63.8006 74.572,-53.7014 69.2047,-44.5378"/>
<polygon fill="#757575" stroke="#757575" points="72.1546,-42.6489 64.0804,-35.789 66.1144,-46.1868 72.1546,-42.6489"/>
</g>
<!-- lib/pollFeeds/lib/poll -->
<g id="node15" class="node"><title>lib/pollFeeds/lib/poll</title>
<ellipse fill="none" stroke="#cfffac" cx="370.247" cy="-18" rx="93" ry="18"/>
<text text-anchor="middle" x="370.247" y="-14.8493" font-family="Arial" font-size="14.00" fill="#cfffac">lib/pollFeeds/lib/poll</text>
</g>
<!-- lib/pollFeeds/index&#45;&gt;lib/pollFeeds/lib/poll -->
<g id="edge19" class="edge"><title>lib/pollFeeds/index&#45;&gt;lib/pollFeeds/lib/poll</title>
<path fill="none" stroke="#757575" d="M370.247,-71.6966C370.247,-63.9827 370.247,-54.7125 370.247,-46.1124"/>
<polygon fill="#757575" stroke="#757575" points="373.747,-46.1043 370.247,-36.1043 366.747,-46.1044 373.747,-46.1043"/>
</g>
</g>
</svg>
