<?xml version="1.0" encoding="UTF-8" standalone="no"?>
<!DOCTYPE svg PUBLIC "-//W3C//DTD SVG 1.1//EN"
 "http://www.w3.org/Graphics/SVG/1.1/DTD/svg11.dtd">
<!-- Generated by graphviz version 2.38.0 (20140413.2041)
 -->
<!-- Title: G Pages: 1 -->
<svg width="905pt" height="260pt"
 viewBox="0.00 0.00 905.24 260.00" xmlns="http://www.w3.org/2000/svg" xmlns:xlink="http://www.w3.org/1999/xlink">
<g id="graph0" class="graph" transform="scale(1 1) rotate(0) translate(4 256)">
<title>G</title>
<polygon fill="#000000" stroke="none" points="-4,4 -4,-256 901.24,-256 901.24,4 -4,4"/>
<!-- ../package -->
<g id="node1" class="node"><title>../package</title>
<ellipse fill="none" stroke="#cfffac" cx="54.2469" cy="-18" rx="54.4949" ry="18"/>
<text text-anchor="middle" x="54.2469" y="-14.8493" font-family="Arial" font-size="14.00" fill="#cfffac">../package</text>
</g>
<!-- cli -->
<g id="node2" class="node"><title>cli</title>
<ellipse fill="none" stroke="#c6c5fe" cx="426.247" cy="-234" rx="27" ry="18"/>
<text text-anchor="middle" x="426.247" y="-230.849" font-family="Arial" font-size="14.00" fill="#c6c5fe">cli</text>
</g>
<!-- cli&#45;&gt;../package -->
<g id="edge1" class="edge"><title>cli&#45;&gt;../package</title>
<path fill="none" stroke="#757575" d="M400.071,-229.084C318.649,-216.283 72.8654,-172.74 32.2469,-108 20.162,-88.7385 28.4167,-63.2578 38.0733,-44.4979"/>
<polygon fill="#757575" stroke="#757575" points="41.2039,-46.0695 42.9964,-35.6274 35.0834,-42.6726 41.2039,-46.0695"/>
</g>
<!-- index -->
<g id="node3" class="node"><title>index</title>
<ellipse fill="none" stroke="#c6c5fe" cx="346.247" cy="-162" rx="33.0903" ry="18"/>
<text text-anchor="middle" x="346.247" y="-158.849" font-family="Arial" font-size="14.00" fill="#c6c5fe">index</text>
</g>
<!-- cli&#45;&gt;index -->
<g id="edge2" class="edge"><title>cli&#45;&gt;index</title>
<path fill="none" stroke="#757575" d="M410.441,-219.17C399.129,-209.272 383.68,-195.754 370.773,-184.46"/>
<polygon fill="#757575" stroke="#757575" points="372.955,-181.719 363.124,-177.768 368.345,-186.987 372.955,-181.719"/>
</g>
<!-- lib/argv -->
<g id="node4" class="node"><title>lib/argv</title>
<ellipse fill="none" stroke="#cfffac" cx="514.247" cy="-162" rx="41.2877" ry="18"/>
<text text-anchor="middle" x="514.247" y="-158.849" font-family="Arial" font-size="14.00" fill="#cfffac">lib/argv</text>
</g>
<!-- cli&#45;&gt;lib/argv -->
<g id="edge3" class="edge"><title>cli&#45;&gt;lib/argv</title>
<path fill="none" stroke="#757575" d="M443.214,-219.503C455.656,-209.606 472.806,-195.964 487.137,-184.564"/>
<polygon fill="#757575" stroke="#757575" points="489.546,-187.121 495.193,-178.157 485.188,-181.643 489.546,-187.121"/>
</g>
<!-- lib/config -->
<g id="node5" class="node"><title>lib/config</title>
<ellipse fill="none" stroke="#cfffac" cx="215.247" cy="-90" rx="47.915" ry="18"/>
<text text-anchor="middle" x="215.247" y="-86.8493" font-family="Arial" font-size="14.00" fill="#cfffac">lib/config</text>
</g>
<!-- cli&#45;&gt;lib/config -->
<g id="edge4" class="edge"><title>cli&#45;&gt;lib/config</title>
<path fill="none" stroke="#757575" d="M401.963,-225.484C376.316,-216.875 335.364,-201.18 304.247,-180 277.534,-161.818 251.986,-134.945 235.17,-115.489"/>
<polygon fill="#757575" stroke="#757575" points="237.658,-113.011 228.52,-107.651 232.321,-117.54 237.658,-113.011"/>
</g>
<!-- lib/helpers -->
<g id="node6" class="node"><title>lib/helpers</title>
<ellipse fill="none" stroke="#c6c5fe" cx="95.2469" cy="-90" rx="53.9364" ry="18"/>
<text text-anchor="middle" x="95.2469" y="-86.8493" font-family="Arial" font-size="14.00" fill="#c6c5fe">lib/helpers</text>
</g>
<!-- cli&#45;&gt;lib/helpers -->
<g id="edge5" class="edge"><title>cli&#45;&gt;lib/helpers</title>
<path fill="none" stroke="#757575" d="M401.222,-226.739C367.913,-218.04 307.487,-200.975 258.247,-180 211.34,-160.019 160.188,-130.764 127.933,-111.316"/>
<polygon fill="#757575" stroke="#757575" points="129.72,-108.306 119.356,-106.107 126.086,-114.289 129.72,-108.306"/>
</g>
<!-- lib/notify -->
<g id="node7" class="node"><title>lib/notify</title>
<ellipse fill="none" stroke="#cfffac" cx="522.247" cy="-90" rx="45.1706" ry="18"/>
<text text-anchor="middle" x="522.247" y="-86.8493" font-family="Arial" font-size="14.00" fill="#cfffac">lib/notify</text>
</g>
<!-- cli&#45;&gt;lib/notify -->
<g id="edge6" class="edge"><title>cli&#45;&gt;lib/notify</title>
<path fill="none" stroke="#757575" d="M422.689,-215.856C419.707,-196.823 417.824,-165.904 431.247,-144 441.886,-126.638 460.492,-114.351 478.119,-106.01"/>
<polygon fill="#757575" stroke="#757575" points="480.008,-109.003 487.754,-101.775 477.191,-102.595 480.008,-109.003"/>
</g>
<!-- lib/opml -->
<g id="node8" class="node"><title>lib/opml</title>
<ellipse fill="none" stroke="#cfffac" cx="616.247" cy="-162" rx="43.4753" ry="18"/>
<text text-anchor="middle" x="616.247" y="-158.849" font-family="Arial" font-size="14.00" fill="#cfffac">lib/opml</text>
</g>
<!-- cli&#45;&gt;lib/opml -->
<g id="edge7" class="edge"><title>cli&#45;&gt;lib/opml</title>
<path fill="none" stroke="#757575" d="M449.545,-224.417C480.745,-212.922 536.615,-192.338 575.014,-178.191"/>
<polygon fill="#757575" stroke="#757575" points="576.685,-181.305 584.859,-174.564 574.265,-174.737 576.685,-181.305"/>
</g>
<!-- lib/remote -->
<g id="node9" class="node"><title>lib/remote</title>
<ellipse fill="none" stroke="#cfffac" cx="729.247" cy="-162" rx="52.2797" ry="18"/>
<text text-anchor="middle" x="729.247" y="-158.849" font-family="Arial" font-size="14.00" fill="#cfffac">lib/remote</text>
</g>
<!-- cli&#45;&gt;lib/remote -->
<g id="edge8" class="edge"><title>cli&#45;&gt;lib/remote</title>
<path fill="none" stroke="#757575" d="M451.791,-227.898C496.048,-218.948 589.778,-199.511 668.247,-180 672.328,-178.985 676.551,-177.894 680.783,-176.773"/>
<polygon fill="#757575" stroke="#757575" points="681.868,-180.105 690.61,-174.12 680.044,-173.347 681.868,-180.105"/>
</g>
<!-- lib/server -->
<g id="node10" class="node"><title>lib/server</title>
<ellipse fill="none" stroke="#cfffac" cx="848.247" cy="-162" rx="48.9854" ry="18"/>
<text text-anchor="middle" x="848.247" y="-158.849" font-family="Arial" font-size="14.00" fill="#cfffac">lib/server</text>
</g>
<!-- cli&#45;&gt;lib/server -->
<g id="edge9" class="edge"><title>cli&#45;&gt;lib/server</title>
<path fill="none" stroke="#757575" d="M452.967,-230.41C513.485,-224.262 665.462,-207.231 790.247,-180 794.171,-179.144 798.219,-178.163 802.266,-177.115"/>
<polygon fill="#757575" stroke="#757575" points="803.518,-180.402 812.25,-174.402 801.682,-173.647 803.518,-180.402"/>
</g>
<!-- lib/store -->
<g id="node11" class="node"><title>lib/store</title>
<ellipse fill="none" stroke="#cfffac" cx="629.247" cy="-90" rx="43.5243" ry="18"/>
<text text-anchor="middle" x="629.247" y="-86.8493" font-family="Arial" font-size="14.00" fill="#cfffac">lib/store</text>
</g>
<!-- cli&#45;&gt;lib/store -->
<g id="edge10" class="edge"><title>cli&#45;&gt;lib/store</title>
<path fill="none" stroke="#757575" d="M429.159,-215.776C433.422,-195.786 443.261,-163.125 464.247,-144 464.321,-143.933 537.289,-120.509 586.152,-104.828"/>
<polygon fill="#757575" stroke="#757575" points="587.424,-108.096 595.876,-101.707 585.285,-101.43 587.424,-108.096"/>
</g>
<!-- index&#45;&gt;lib/config -->
<g id="edge11" class="edge"><title>index&#45;&gt;lib/config</title>
<path fill="none" stroke="#757575" d="M323.428,-148.807C303.367,-138.087 273.843,-122.311 250.705,-109.947"/>
<polygon fill="#757575" stroke="#757575" points="252.335,-106.85 241.865,-105.224 249.035,-113.023 252.335,-106.85"/>
</g>
<!-- index&#45;&gt;lib/helpers -->
<g id="edge12" class="edge"><title>index&#45;&gt;lib/helpers</title>
<path fill="none" stroke="#757575" d="M316.963,-152.833C274.773,-141.067 196.326,-119.189 144.96,-104.864"/>
<polygon fill="#757575" stroke="#757575" points="145.639,-101.42 135.066,-102.105 143.758,-108.163 145.639,-101.42"/>
</g>
<!-- index&#45;&gt;lib/notify -->
<g id="edge13" class="edge"><title>index&#45;&gt;lib/notify</title>
<path fill="none" stroke="#757575" d="M372.216,-150.671C401.11,-139.179 448.156,-120.468 481.864,-107.061"/>
<polygon fill="#757575" stroke="#757575" points="483.428,-110.206 491.426,-103.258 480.841,-103.702 483.428,-110.206"/>
</g>
<!-- index&#45;&gt;lib/store -->
<g id="edge15" class="edge"><title>index&#45;&gt;lib/store</title>
<path fill="none" stroke="#757575" d="M376.959,-154.78C421.255,-145.615 505.525,-127.454 576.247,-108 579.61,-107.075 583.078,-106.073 586.555,-105.034"/>
<polygon fill="#757575" stroke="#757575" points="587.765,-108.323 596.297,-102.041 585.71,-101.632 587.765,-108.323"/>
</g>
<!-- lib/pollFeeds/index -->
<g id="node12" class="node"><title>lib/pollFeeds/index</title>
<ellipse fill="none" stroke="#c6c5fe" cx="370.247" cy="-90" rx="88.6268" ry="18"/>
<text text-anchor="middle" x="370.247" y="-86.8493" font-family="Arial" font-size="14.00" fill="#c6c5fe">lib/pollFeeds/index</text>
</g>
<!-- index&#45;&gt;lib/pollFeeds/index -->
<g id="edge14" class="edge"><title>index&#45;&gt;lib/pollFeeds/index</title>
<path fill="none" stroke="#757575" d="M352.057,-144.055C354.758,-136.176 358.035,-126.617 361.06,-117.794"/>
<polygon fill="#757575" stroke="#757575" points="364.391,-118.87 364.324,-108.275 357.77,-116.6 364.391,-118.87"/>
</g>
<!-- lib/helpers&#45;&gt;../package -->
<g id="edge16" class="edge"><title>lib/helpers&#45;&gt;../package</title>
<path fill="none" stroke="#757575" d="M85.3219,-72.055C80.4873,-63.8006 74.572,-53.7014 69.2047,-44.5378"/>
<polygon fill="#757575" stroke="#757575" points="72.1546,-42.6489 64.0804,-35.789 66.1144,-46.1868 72.1546,-42.6489"/>
</g>
<!-- lib/pollFeeds/lib/poll -->
<g id="node13" class="node"><title>lib/pollFeeds/lib/poll</title>
<ellipse fill="none" stroke="#cfffac" cx="370.247" cy="-18" rx="93" ry="18"/>
<text text-anchor="middle" x="370.247" y="-14.8493" font-family="Arial" font-size="14.00" fill="#cfffac">lib/pollFeeds/lib/poll</text>
</g>
<!-- lib/pollFeeds/index&#45;&gt;lib/pollFeeds/lib/poll -->
<g id="edge17" class="edge"><title>lib/pollFeeds/index&#45;&gt;lib/pollFeeds/lib/poll</title>
<path fill="none" stroke="#757575" d="M370.247,-71.6966C370.247,-63.9827 370.247,-54.7125 370.247,-46.1124"/>
<polygon fill="#757575" stroke="#757575" points="373.747,-46.1043 370.247,-36.1043 366.747,-46.1044 373.747,-46.1043"/>
</g>
</g>
</svg>
