<?xml version="1.0" encoding="utf-8"?>
<svg version="1.1" xmlns="http://www.w3.org/2000/svg" xmlns:xlink="http://www.w3.org/1999/xlink" x="0px" y="0px"
	 viewBox="0 0 585.4 800" style="enable-background:new 0 0 585.4 800;" xml:space="preserve">
<style type="text/css">
	.st0{display:none;}
	.st1{display:inline;}
	.st2{fill:#FFFFFF;}
	.st3{display:inline;fill:none;stroke:#000000;stroke-width:3;stroke-miterlimit:10;}
	.st4{display:inline;fill:#FFFFFF;}
	.st5{display:inline;fill:#80BD01;}
	.st6{fill:#80BD01;}
	.st7{fill:#333333;}
	.st8{fill:#D95B29;}
</style>
<g id="Template" class="st0">
	<g class="st1">
		<path class="st2" d="M610.8,573.7c1,0.4,1.3,0.7,1.6,0.7c59,0.1,118,0.1,177,0.1c1,0,2-0.1,3-0.2c0.1,0,0.3-0.1,0.4-0.2
			c0.1-0.1,0.6-0.2,0.6-0.6c0-1.4,0-3.1,0-4.7c0-20.5,0-41,0-61.5c0-2,0.1-4-0.1-6c-0.7-7.8-3.9-14.3-10.5-18.9
			c-4.9-3.4-10.6-4.8-16.5-4.8c-41.2-0.1-82.3,0-123.5-0.1c-4.5,0-8.9,0.5-13.3,1.6c-3.9,1-7,2.9-9.9,5.4
			c-6.9,5.9-9.1,13.8-9.2,22.3c-0.2,20.8-0.1,41.7-0.1,62.5C610.6,570.7,610.7,572.2,610.8,573.7z M702,582.4c-18,0-35.9,0-53.9,0
			c-1.3,0-2.8-0.3-4,0.1c-1.3,0.5-2.8,1.4-3.4,2.6c-1.8,3.5,0,6.9,3.9,7.9c1.4,0.3,3,0.4,4.4,0.4c7,0,14,0,21,0
			c28.1,0,56.2,0,84.4,0c2.3,0,4.7-0.3,6.8-1c3.3-1.1,4-5,1.9-7.8c-1.5-2-3.5-2.2-5.7-2.2C738.9,582.4,720.5,582.4,702,582.4z
			 M702.4,610.5c11.8,0,23.7,0,35.5,0c1.3,0,2.7,0.1,4-0.1c2.2-0.4,3.5-1.9,4.2-3.8c0.6-1.7-0.1-3.1-1.4-4.5
			c-1.7-1.8-3.5-2.7-6.1-2.7c-24.2,0.1-48.3,0.1-72.5,0.1c-0.7,0-1.3-0.1-2,0c-2.8,0.4-5.1,3.3-4.8,6.1c0.3,2.4,1.7,5.3,5.1,5
			c1.2-0.1,2.3,0,3.5,0C679.4,610.5,690.9,610.5,702.4,610.5z M699.4,454.9L699.4,454.9c0,3,0,6.5,0.1,9.6s1.3,4.5,4,4.8
			c3.2,0.4,4.9-0.6,5.7-3.5c0.3-1.3,0.3-2.6,0.3-3.9c0-5,0.1-10,0-15c-0.1-2.2,0.5-3.8,2.2-5.3c3.2-2.9,4.2-6.6,3.8-10.9
			c-0.8-8.1-9.8-12.2-16.9-8.2c-5.6,3.2-7.2,12.8-2.7,17.3c3.3,3.2,3.8,6.6,3.6,10.6C699.3,452,699.4,453.9,699.4,454.9z"/>
		<path d="M610.8,573.7c-0.1-1.5-0.3-3-0.3-4.4c0-20.8-0.2-41.7,0.1-62.5c0.1-8.5,2.3-16.4,9.2-22.3c2.9-2.5,6-4.4,9.9-5.4
			c4.4-1.1,8.8-1.6,13.3-1.6c41.2,0,82.3,0,123.5,0.1c5.9,0,11.5,1.4,16.5,4.8c6.5,4.6,9.8,11,10.5,18.9c0.2,2,0.1,4,0.1,6
			c0,20.5,0,41,0,61.5c0,1.7,0,3.3,0,4.7c0,0.4-0.5,0.5-0.6,0.6s-0.3,0.2-0.4,0.2c-1,0.1-2,0.2-3,0.2c-59,0-118-0.1-177-0.1
			C612.1,574.4,611.8,574.1,610.8,573.7z M745.4,502.3c-10-0.7-16.9,8.9-16.8,16.6c0.1,8.6,5.8,17.2,16.8,17.2s16.6-8.6,16.9-17.2
			C762.6,511.7,755.3,501.5,745.4,502.3z M661.7,502.3c-10.1-0.5-16.9,7.9-17,16.8c-0.1,7.8,6.1,16.6,16.5,17.1
			c8.5,0.4,17.3-7.8,17.1-16.6C678,509.6,671.6,502.3,661.7,502.3z"/>
		<path d="M702,582.4c18.5,0,36.9,0,55.4,0c2.3,0,4.2,0.2,5.7,2.2c2.1,2.7,1.4,6.7-1.9,7.8c-2.2,0.7-4.5,1-6.8,1
			c-28.1,0.1-56.2,0-84.4,0c-7,0-14,0-21,0c-1.5,0-3-0.1-4.4-0.4c-3.9-0.9-5.7-4.4-3.9-7.9c0.6-1.1,2.1-2.1,3.4-2.6
			c1.2-0.4,2.6-0.1,4-0.1C666,582.4,684,582.4,702,582.4z"/>
		<path d="M702.4,610.5c-11.5,0-23,0-34.5,0c-1.2,0-2.3-0.1-3.5,0c-3.4,0.4-4.8-2.5-5.1-5c-0.3-2.7,2-5.6,4.8-6.1c0.7-0.1,1.3,0,2,0
			c24.2,0,48.3,0,72.5-0.1c2.6,0,4.4,0.9,6.1,2.7c1.3,1.3,2,2.8,1.4,4.5c-0.7,1.9-2.1,3.5-4.2,3.8c-1.3,0.2-2.7,0.1-4,0.1
			C726.1,610.5,714.3,610.5,702.4,610.5z"/>
		<path d="M699.4,454.9c0-1-0.1-2.9,0-4.4c0.3-4.1-0.3-7.5-3.6-10.7c-4.6-4.4-3-14,2.7-17.2c7.1-4.1,16.1,0.1,16.9,8.2
			c0.4,4.2-0.7,8-3.8,10.9c-1.6,1.5-2.2,3.1-2.2,5.3c0.1,5,0.1,10,0,15c0,1.3,0,2.7-0.3,4c-0.8,2.9-2.5,3.9-5.7,3.5
			c-2.7-0.3-3.9-1.8-4-4.9C699.3,461.4,699.4,457.9,699.4,454.9L699.4,454.9z"/>
		<path class="st2" d="M745.4,502.3c9.9-0.8,17.2,9.4,16.9,16.6c-0.3,8.6-5.9,17.2-16.9,17.2s-16.8-8.6-16.8-17.2
			C728.5,511.2,735.4,501.6,745.4,502.3z"/>
		<path class="st2" d="M661.7,502.3c10,0,16.3,7.3,16.6,17.3c0.2,8.8-8.6,17.1-17.1,16.6c-10.5-0.5-16.6-9.3-16.5-17.1
			C644.7,510.2,651.5,501.8,661.7,502.3z"/>
	</g>
	<circle class="st1" cx="42.6" cy="550.9" r="7"/>
	<line class="st3" x1="42.9" y1="550.9" x2="42.9" y2="591.9"/>
	<rect x="39.8" y="545.6" transform="matrix(0.1669 -0.986 0.986 0.1669 -502.3606 498.6187)" class="st4" width="8.2" height="2"/>
	<circle class="st1" cx="42.6" cy="591.4" r="7"/>
	<rect x="37.3" y="594.7" transform="matrix(0.1669 -0.986 0.986 0.1669 -552.8621 537.1398)" class="st4" width="8.2" height="2"/>
	<g class="st1">
		<path d="M814.2,640.4c-3.6-2.6-5.9-6.2-7.7-10.1c-4.3-9.3-6.2-19-5.6-29.2c0-0.5-0.1-1-0.2-1.5c-1.2,1.5-1.8,3.1-2.5,4.7
			c-1.9,4-4.4,7.3-8.6,9.1c-3.6,1.5-7.1,3.1-10.6,4.7c-19.8,8.9-39.7,17.7-59.5,26.6c-3.2,1.4-6.4,2.8-9.5,4.3
			c-1,0.4-2.9,1.2-2.9,1.2l-26,11.5c-1.2,0.7-2,1.3-2.9,1.6c-0.6,0.2-1.2,0.5-1.7,0.7c-3.6,1.5-7.2,3.1-10.7,4.7
			c-13.2,5.9-26.4,11.8-39.6,17.7c-8,3.5-15.9,7.1-23.9,10.7c-2.3,1.1-4.7,1.5-7.2,0.8c-3.2-0.9-6.4-2-9.6-3c-1.3-0.4-2.7-1-4.1-1.6
			c0.1,0.5,0.1,0.8,0.2,0.9c0.2,0.2,0.4,0.5,0.6,0.7c2.4,1.5,4.1,3.7,5.6,6c4.3,6.8,6.7,14.3,7.7,22.1c0.6,4.4,0.6,8.8,0.9,13.5
			c0.4-0.5,0.9-0.9,1.1-1.4c0.6-1.2,1-2.5,1.5-3.7c1.9-4.2,5-7.4,9.3-9.3c8.5-3.8,17-7.6,25.5-11.4c8.2-3.7,16.4-7.3,24.6-11
			c9-4,18-8,27-12.1c1.5-0.7,3.1-1.4,4.6-2.1c0.6-0.3,1.3-0.4,2.1-0.6l25.4-11.3c0,0,3.4-1.8,5.1-2.6c3.5-1.6,7.1-3.2,10.6-4.8
			c1-0.5,2-0.9,3-1.3c4.7-2.1,9.4-4.1,14-6.2c4.7-2.1,9.3-4.1,14-6.2c10.3-4.6,20.6-9.3,30.9-13.8c2.5-1.1,5.1-1.5,7.8-0.7
			c3.1,0.9,6.2,2,9.3,2.9c1,0.3,2,0.7,3,1C814.9,641.1,814.6,640.7,814.2,640.4z"/>
		<path d="M547,741.1c0.9-1.3,2.1-1.3,3.2-1.4c4.3-0.5,8.5-1,12.8-1.6c1.1-0.1,2.2-0.3,3.3-0.6c1.7-0.4,2.9-1.4,3.7-3
			c2.4-4.9,2.7-10,1.1-15.2c-0.8-2.6-1.9-5.2-3.5-7.5c-1.4-2.1-3.2-3.2-6-2.7c-5,0.9-10.1,1.4-15.2,2c-0.9,0.1-1.8,0.1-3,0.2
			c0.4-0.9,0.5-1.5,0.8-1.9c5.5-5.5,11.6-10.3,18.5-13.9c2-1.1,4.4-1.8,6.6-2.3c5.5-1.2,9.9,0.9,13.8,4.6c3.8,3.7,6.2,8.4,8,13.3
			c2.4,6.8,3.6,13.8,2.9,21.1c-0.3,3.1-0.6,6.3-1.9,9.2c-1.6,3.7-4,6.8-7.2,9.3c-2.8,2.2-6.2,2.6-9.6,2.6c-2.3,0-4.6-0.6-6.9-1.1
			s-4.6-1.1-6.7-2c-4.3-1.9-8.5-4-12.2-6.8C548.6,742.8,547.8,741.9,547,741.1z"/>
		<path d="M849.5,595.7c-1.3,0.4-2,0.7-2.7,0.8c-4.1,0.5-8.1,1-12.2,1.5c-0.5,0.1-1,0.1-1.5,0.2c-5.6,0.8-7.5,2.8-8.4,8.4
			c-1.1,6.2,0.9,11.7,3.8,17c0.7,1.2,1.9,2.1,2.9,3.2c3.6-0.4,7.1-0.7,10.5-1.1c3.3-0.4,6.7-0.9,10-1.3c0.6,1.3,0,1.9-0.7,2.5
			c-3.8,3.5-7.7,7-12.2,9.8c-2.5,1.5-5.1,3.1-7.7,4.3c-4.2,2-8.7,2.4-13,0.3c-2.8-1.4-5.1-3.3-7-5.8c-4.7-6.2-7.1-13.3-8.2-20.9
			c-0.8-5.4-0.8-10.8,0.4-16.1c1.5-6.5,4.9-11.6,11.3-14.3c3.5-1.5,7.2-1.3,10.8-0.6c3.2,0.7,6.3,1.8,9.3,2.9c4.2,1.5,8,4,11.7,6.5
			C847.5,593.5,848.3,594.5,849.5,595.7z"/>
	</g>
	<g class="st1">
		<path d="M827.6,710.8c-6.4-3.9-13.3-4-20.1-1.5c-29.3-15.7-58.4-31.4-87.5-46.9c-5.5-2.9-16.4-8.8-16.4-8.8L681,641.4
			c0,0-4-1.9-5.7-2.9c-3.2-1.7-6.4-3.4-9.6-5.1c-19.4-10.3-38.8-20.7-58.2-30.9c-4.4-2.3-7.1-5.7-8.9-10.1c-1-2.4-2-4.7-3.3-7.7
			c0,2.2,0,3.8-0.1,5.3c-0.7,10.9-3.5,21.2-9,30.6c-2.4,4.1-5.3,7.8-9.5,10.2c-0.3,0.2-0.4,0.6-0.7,1.1c4.5-1.1,8.8-2,13-3.1
			s8-0.4,11.8,1.6c17.9,9.6,35.8,19.1,53.7,28.6c1,0.5,2,1.2,3,1.8c0.4,0.2,0.8,0.4,1.2,0.6c3.1,1.4,6,3.4,8.9,5.2l23,11.6
			c6,3.2,11.9,6.3,17.9,9.5c28.4,15.2,56.8,30.3,85.1,45.4c0.1,0,0.2,0.1,0.3,0.1c0.1,0,0.2,0,0.3,0c0.1,0,0.1-0.1,0.2-0.2
			c0-0.6-0.1-1.1-0.1-1.7c0.9,6.8,4.1,12.3,9.8,16.3c5.7,3.9,12.1,5,18.7,3c11.4-3.5,17.1-14.7,15.1-25.1
			C836.4,718.9,833,714,827.6,710.8z M834.1,728.4c0,1.2-0.1,2.4-0.1,3.6c0.2,1.4,0.1,2.7-1,3.7c-0.7,1.5-1.5,2.9-2.2,4.4
			c-0.8,1-1.7,1.9-2.5,2.9c-0.5,0.3-1,0.6-1.6,1c-2.8,2.7-7.4,4.1-11.2,3.4h0.1c-2.3,0.6-4.4-0.3-6.3-1.4c-1-0.5-1.9-1-2.9-1.5
			c-3.3-1.2-5.1-4-6.5-6.8c-2.2-4.5-2.6-9.3-0.9-14.1c0.1-0.4,0.5-0.6,0.7-0.9c0.5-1,1-1.9,1.5-2.9c1-2,2.2-3.9,4.4-4.7v0.1
			c2.8-2.7,7.4-4.1,11.3-3.4c0.6,0,1.2,0,1.9,0.1c1.3-0.2,2.5,0,3.5,0.9c1.5,0.8,3,1.6,4.5,2.4c1.4,0.3,2.1,1.4,2.8,2.5
			c0.7,1,1.4,2,2.1,3c1.5,1,1.5,2.8,2,4.3C834,725.8,834.9,727,834.1,728.4z"/>
		<path d="M536,609.4c2.3,0.4,4.2,0.7,6,1.1c4.7,0.9,9.4,1.9,14.1,2.9c2.5,0.6,4.4-0.2,6-2.1c4.3-5.1,6.5-11.1,6.3-17.8
			c0-2.1-0.7-4.2-1.1-6.3c-0.7-2.9-2.8-4.4-5.6-5c-5.5-1.1-11-2.2-16.5-3.4c-1-0.2-2.3,0-2.9-1.6c1.2-2.1,3.5-3,5.4-4.1
			c5.1-2.9,10.5-5.1,16.2-6.3c4.5-1,9-1.7,13.6-0.7c3,0.6,5.6,1.8,7.8,4c4.5,4.3,6.8,9.6,7.5,15.7c1.4,12.1-1.7,23.3-7.7,33.7
			c-2.8,4.8-6.6,8.7-11.6,11c-4.4,2.1-8.9,1.8-13.3-0.2c-5.7-2.5-10.5-6.2-15.1-10.4c-2.5-2.3-4.8-4.7-7.2-7.1
			C537.2,612.1,536.2,611.3,536,609.4z"/>
	</g>
</g>
<g id="Inverted" class="st0">
	<path class="st4" d="M-124.1,600.9c0-1.5-0.8-2.8-2-3.5l-33.4-19.1c-0.6-0.3-1.2-0.4-1.8-0.4c-0.1,0-0.3,0-0.3,0
		c-0.6,0-1.3,0.1-1.8,0.4l-33.4,19.1c-1.2,0.7-2,2-2,3.5l0.1,51.7c0,0.7,0.4,1.4,1,1.7c0.6,0.4,1.4,0.4,2,0l20.1-11.4
		c1.3-0.7,2.2-2.1,2.2-3.5v-24.2c0-1.4,0.6-2.8,1.8-3.5l8.3-4.9c0.6-0.4,1.3-0.5,2-0.5s1.4,0.2,2,0.5l8.7,4.9c1.2,0.7,2.2,2,2.2,3.5
		v24.2c0,1.4,0.5,2.8,1.8,3.5l19.7,11.4c0.6,0.4,1.3,0.4,2,0c0.6-0.4,1-1,1-1.7L-124.1,600.9z"/>
	<path class="st4" d="M441.2,644.8c0,1.5,0.8,2.8,2,3.5l20.4,19.1c0.6,0.3,1.2,0.5,1.8,0.5c0.1,0,0.3,0,0.3,0c0.6,0,1.3-0.1,1.8-0.5
		l20.4-19.2c1.2-0.7,2-2,2-3.5l12.9-51.7c0-0.7-0.4-1.4-1-1.7c-0.6-0.4-1.4-0.4-2,0L480,602.7c-1.3,0.7-2,2.1-2,3.5l-10.5,32.5
		c-0.6,0.4-1.3,0.5-2,0.5s-1.4-0.2-2-0.5L453,606.2c0-1.4-0.8-2.8-2-3.5l-19.8-11.4c-0.6-0.4-1.4-0.4-2,0s-1,1-1,1.7L441.2,644.8z"
		/>
	<path class="st4" d="M54.1,529.8c-0.6-0.3-1.2-0.3-1.9,0c-0.6,0.4-0.9,1-0.9,1.7v51.2c0,0.5-0.4,1-0.8,1.2c-0.4,0.3-1,0.3-1.5,0
		l-8.4-4.8c-1.2-0.7-2.8-0.7-4,0L3.3,598.4c-1.2,0.7-1.9,2.1-1.9,3.5v38.6c0,1.4,0.7,2.8,1.9,3.5l33.3,19.3c1.2,0.7,2.8,0.7,4,0
		L74.2,644c1.2-0.7,2.2-2.1,2.2-3.5v-96.1c0-1.5-1-2.8-2.2-3.5L54.1,529.8z M51.4,627.8c0,0.4-0.4,0.7-0.7,0.9l-11.6,6.6
		c-0.3,0.2-0.7,0.2-1.1,0l-11.3-6.6c-0.3-0.2-0.4-0.5-0.4-0.9v-13.2c0-0.4,0-0.7,0.3-0.9l11.4-6.6c0.3-0.2,0.7-0.2,1,0l11.6,6.6
		c0.3,0.2,0.7,0.5,0.7,0.9L51.4,627.8L51.4,627.8z"/>
	<path class="st4" d="M173.5,614.2c1.2-0.7,1.9-2,1.9-3.5v-9.3c0-1.4-0.7-2.8-1.9-3.5l-33.1-19.2c-1.2-0.7-2.8-0.7-4,0l-33.2,19.2
		c-1.2,0.7-1.8,2.1-1.8,3.5v38.5c0,1.4,0.6,2.8,1.8,3.5l33.1,18.9c1.2,0.7,2.7,0.7,3.9,0l20-11.2c0.6-0.4,1-1,1-1.7s-0.4-1.4-1-1.8
		l-33.7-19.3c-0.6-0.4-1.1-1-1.1-1.7v-12.1c0-0.7,0.5-1.4,1.1-1.7l10.5-6c0.6-0.4,1.4-0.4,2,0l10.4,6c0.6,0.4,0.9,1,0.9,1.7v9.5
		c0,0.7,0.5,1.4,1.1,1.7c0.6,0.4,1.4,0.4,2,0L173.5,614.2z"/>
	<path class="st5" d="M-63.4,578.5c1.2-0.7,2.8-0.7,4,0l33.6,19.3c1.2,0.7,2.2,2.1,2.2,3.5v38.6c0,1.4-1,2.8-2.2,3.5l-33.5,19.3
		c-1.2,0.7-2.8,0.7-4.1,0l-33.3-19.3c-1.2-0.7-1.9-2.1-1.9-3.5v-38.6c0-1.4,0.7-2.8,1.9-3.5L-63.4,578.5z"/>
	<path class="st5" d="M368.3,578.5c1.2-0.7,2.8-0.7,4,0l33.2,19.3c1.2,0.7,1.8,2.1,1.8,3.5v38.6c0,1.4-0.6,2.8-1.8,3.5l-33.3,19.3
		c-1.2,0.7-2.7,0.7-4,0l-33.1-19.3c-1.2-0.7-1.8-2.1-1.8-3.5v-38.6c0-1.4,0.5-2.8,1.8-3.5L368.3,578.5z"/>
	<path class="st5" d="M137.9,612.4c0.2-0.1,0.5-0.1,0.8,0l6.4,3.7c0.2,0.1,0.3,0.4,0.3,0.7v7.4c0,0.3-0.1,0.5-0.3,0.7l-6.4,3.7
		c-0.2,0.1-0.5,0.1-0.8,0l-6.3-3.7c-0.2-0.1-0.2-0.4-0.2-0.7v-7.4c0-0.3,0-0.5,0.2-0.7L137.9,612.4z"/>
	<path class="st4" d="M590.2,614.2c1.2-0.7,2.2-2,2.2-3.5v-9.3c0-1.4-1-2.8-2.2-3.5l-33.3-19.3c-1.2-0.7-2.8-0.7-4.1,0l-33.4,19.3
		c-1.2,0.7-2,2.1-2,3.5v38.5c0,1.4,0.7,2.8,2,3.5l33.2,18.9c1.2,0.7,2.7,0.7,3.9,0l20.1-11.2c0.6-0.4,1-1,1-1.7s-0.4-1.4-1-1.8
		l-33.4-19.3c-0.6-0.4-0.8-1-0.8-1.7v-12.1c0-0.7,0.2-1.4,0.8-1.7l10.3-6c0.6-0.4,1.3-0.4,2,0l10.7,6c0.6,0.4,1.2,1,1.2,1.7v9.5
		c0,0.7,0.1,1.4,0.8,1.7c0.6,0.4,1.4,0.4,2,0L590.2,614.2z"/>
	<path class="st5" d="M554.2,612.4c0.2-0.1,0.5-0.1,0.8,0l6.2,3.7c0.2,0.1,0.2,0.4,0.2,0.7v7.4c0,0.3,0.1,0.5-0.2,0.7l-6.3,3.7
		c-0.2,0.1-0.5,0.1-0.7,0l-6.4-3.7c-0.2-0.1-0.4-0.4-0.4-0.7v-7.4c0-0.3,0.2-0.5,0.4-0.7L554.2,612.4z"/>
	<path class="st4" d="M317.6,597.9L284,578.6c-1.2-0.7-3-0.7-4.2,0l-33.9,19.3c-1.2,0.7-1.5,2.1-1.5,3.5l0.1,61.7
		c0,0.7,0.2,1.4,0.9,1.7c0.6,0.4,1.3,0.4,1.9,0l20.1-11.4c1.3-0.7,2-2.4,2-3.8v-26.2l-0.3-8.9c0-0.7,0.2-1.4,0.9-1.7l10.4-6
		c0.6-0.4,1.4-0.4,2,0l10.3,6c0.6,0.4,0.8,1,0.8,1.7v9.5c0,0.7,0.6,1.4,1.2,1.7c0.6,0.4,1.5,0.4,2.1,0l20.8-11.6
		c1.2-0.7,2.9-2,2.9-3.5v-9.3C320.4,600,318.8,598.6,317.6,597.9z"/>
	<path class="st4" d="M674.6,597.9L641,578.6c-1.2-0.7-3-0.7-4.2,0l-33.9,19.3c-1.2,0.7-1.5,2.1-1.5,3.5l0.1,61.7
		c0,0.7,0.2,1.4,0.9,1.7c0.6,0.4,1.3,0.4,1.9,0l20.1-11.4c1.3-0.7,2-2.4,2-3.8v-26.2l-0.3-8.9c0-0.7,0.2-1.4,0.9-1.7l10.4-6
		c0.6-0.4,1.4-0.4,2,0l10.3,6c0.6,0.4,0.8,1,0.8,1.7v9.5c0,0.7,0.6,1.4,1.2,1.7c0.6,0.4,1.5,0.4,2.1,0l20.8-11.6
		c1.2-0.7,2.9-2,2.9-3.5v-9.3C677.4,600,675.8,598.6,674.6,597.9z"/>
	<g class="st1">
		<path class="st2" d="M152.8,336.7c1,0.4,1.3,0.7,1.6,0.7c59,0.1,118,0.1,177,0.1c1,0,2-0.1,3-0.2c0.1,0,0.3-0.1,0.4-0.2
			s0.6-0.2,0.6-0.6c0-1.4,0-3.1,0-4.7c0-20.5,0-41,0-61.5c0-2,0.1-4-0.1-6c-0.7-7.8-3.9-14.3-10.5-18.9c-4.9-3.4-10.6-4.8-16.5-4.8
			c-41.2-0.1-82.3,0-123.5-0.1c-4.5,0-8.9,0.5-13.3,1.6c-3.9,1-7,2.9-9.9,5.4c-6.9,5.9-9.1,13.8-9.2,22.3
			c-0.2,20.8-0.1,41.7-0.1,62.5C152.6,333.7,152.7,335.2,152.8,336.7z M244,345.4c-18,0-35.9,0-53.9,0c-1.3,0-2.8-0.3-4,0.1
			c-1.3,0.5-2.8,1.4-3.4,2.6c-1.8,3.5,0,6.9,3.9,7.9c1.4,0.3,3,0.4,4.4,0.4c7,0,14,0,21,0c28.1,0,56.2,0,84.4,0c2.3,0,4.7-0.3,6.8-1
			c3.3-1.1,4-5,1.9-7.8c-1.5-2-3.5-2.2-5.7-2.2C280.9,345.4,262.5,345.4,244,345.4z M244.4,373.5c11.8,0,23.7,0,35.5,0
			c1.3,0,2.7,0.1,4-0.1c2.2-0.4,3.5-1.9,4.2-3.8c0.6-1.7-0.1-3.1-1.4-4.5c-1.7-1.8-3.5-2.7-6.1-2.7c-24.2,0.1-48.3,0.1-72.5,0.1
			c-0.7,0-1.3-0.1-2,0c-2.8,0.4-5.1,3.3-4.8,6.1c0.3,2.4,1.7,5.3,5.1,5c1.2-0.1,2.3,0,3.5,0C221.4,373.5,232.9,373.5,244.4,373.5z
			 M241.4,217.9L241.4,217.9c0,3,0,6.5,0.1,9.6s1.3,4.5,4,4.8c3.2,0.4,4.9-0.6,5.7-3.5c0.3-1.3,0.3-2.6,0.3-3.9c0-5,0.1-10,0-15
			c-0.1-2.2,0.5-3.8,2.2-5.3c3.2-2.9,4.2-6.6,3.8-10.9c-0.8-8.1-9.8-12.2-16.9-8.2c-5.6,3.2-7.2,12.8-2.7,17.3
			c3.3,3.2,3.8,6.6,3.6,10.6C241.3,215,241.4,216.9,241.4,217.9z"/>
		<path class="st2" d="M152.8,336.7c-0.1-1.5-0.3-3-0.3-4.4c0-20.8-0.2-41.7,0.1-62.5c0.1-8.5,2.3-16.4,9.2-22.3
			c2.9-2.5,6-4.4,9.9-5.4c4.4-1.1,8.8-1.6,13.3-1.6c41.2,0,82.3,0,123.5,0.1c5.9,0,11.5,1.4,16.5,4.8c6.5,4.6,9.8,11,10.5,18.9
			c0.2,2,0.1,4,0.1,6c0,20.5,0,41,0,61.5c0,1.7,0,3.3,0,4.7c0,0.4-0.5,0.5-0.6,0.6s-0.3,0.2-0.4,0.2c-1,0.1-2,0.2-3,0.2
			c-59,0-118-0.1-177-0.1C154.1,337.4,153.8,337.1,152.8,336.7z M287.4,265.3c-10-0.7-16.9,8.9-16.8,16.6
			c0.1,8.6,5.8,17.2,16.8,17.2s16.6-8.6,16.9-17.2C304.6,274.7,297.3,264.5,287.4,265.3z M203.7,265.3c-10.1-0.5-16.9,7.9-17,16.8
			c-0.1,7.8,6.1,16.6,16.5,17.1c8.5,0.4,17.3-7.8,17.1-16.6C220,272.6,213.6,265.3,203.7,265.3z"/>
		<path class="st2" d="M244,345.4c18.5,0,36.9,0,55.4,0c2.3,0,4.2,0.2,5.7,2.2c2.1,2.7,1.4,6.7-1.9,7.8c-2.2,0.7-4.5,1-6.8,1
			c-28.1,0.1-56.2,0-84.4,0c-7,0-14,0-21,0c-1.5,0-3-0.1-4.4-0.4c-3.9-0.9-5.7-4.4-3.9-7.9c0.6-1.1,2.1-2.1,3.4-2.6
			c1.2-0.4,2.6-0.1,4-0.1C208,345.4,226,345.4,244,345.4z"/>
		<path class="st2" d="M244.4,373.5c-11.5,0-23,0-34.5,0c-1.2,0-2.3-0.1-3.5,0c-3.4,0.4-4.8-2.5-5.1-5c-0.3-2.7,2-5.6,4.8-6.1
			c0.7-0.1,1.3,0,2,0c24.2,0,48.3,0,72.5-0.1c2.6,0,4.4,0.9,6.1,2.7c1.3,1.3,2,2.8,1.4,4.5c-0.7,1.9-2.1,3.5-4.2,3.8
			c-1.3,0.2-2.7,0.1-4,0.1C268.1,373.5,256.3,373.5,244.4,373.5z"/>
		<path class="st2" d="M241.4,217.9c0-1-0.1-2.9,0-4.4c0.3-4.1-0.3-7.5-3.6-10.7c-4.6-4.4-3-14,2.7-17.2c7.1-4.1,16.1,0.1,16.9,8.2
			c0.4,4.2-0.7,8-3.8,10.9c-1.6,1.5-2.2,3.1-2.2,5.3c0.1,5,0.1,10,0,15c0,1.3,0,2.7-0.3,4c-0.8,2.9-2.5,3.9-5.7,3.5
			c-2.7-0.3-3.9-1.8-4-4.9C241.3,224.4,241.4,220.9,241.4,217.9L241.4,217.9z"/>
		<path class="st6" d="M287.4,265.3c9.9-0.8,17.2,9.4,16.9,16.6c-0.3,8.6-5.9,17.2-16.9,17.2s-16.8-8.6-16.8-17.2
			C270.5,274.2,277.4,264.6,287.4,265.3z"/>
		<path class="st6" d="M203.7,265.3c10,0,16.3,7.3,16.6,17.3c0.2,8.8-8.6,17.1-17.1,16.6c-10.5-0.5-16.6-9.3-16.5-17.1
			C186.7,273.2,193.5,264.8,203.7,265.3z"/>
	</g>
	<g class="st1">
		<path class="st2" d="M363.7,396.6c-3.6-2.6-3.6-1.2-5.4-5.1c-4.3-9.3-5-17.3-4.4-27.5c0-0.5-5.7-9.1-5.7-9.6
			c-1.2,1.5-7.3,11.4-8,13c-1.9,4-4.4,7.3-8.6,9.1c-3.6,1.5-7.1,3.1-10.6,4.7c-19.8,8.9-39.7,17.7-59.5,26.6
			c-3.2,1.4-6.4,2.8-9.5,4.3c-1,0.4-2.9,1.2-2.9,1.2l-26,11.5c-1.2,0.7-2,1.3-2.9,1.6c-0.6,0.2-1.2,0.5-1.7,0.7
			c-3.6,1.5-7.2,3.1-10.7,4.7c-13.2,5.9-26.4,11.8-39.6,17.7c-8,3.5-15.9,7.1-23.9,10.7c-2.3,1.1-4.7,1.5-7.2,0.8
			c-3.2-0.9-6.4-2-9.6-3c-1.3-0.4-8.5-2.7-12.7-1.9c0.1,0.5,4.3,9.1,4.6,9.3c2.4,1.5,5.9-2.8,7.4-0.4c4.3,6.8,6.7,14.3,7.7,22.1
			c0.6,4.4-6,20.9-5.8,25.6c5.9-3.4,10.5-14,10.8-14.5c0.6-1.2,1-2.5,1.5-3.7c1.9-4.2,5-7.4,9.3-9.3c8.5-3.8,17-7.6,25.5-11.4
			c8.2-3.7,16.4-7.3,24.6-11c9-4,18-8,27-12.1c1.5-0.7,3.1-1.4,4.6-2.1c0.6-0.3,1.3-0.4,2.1-0.6l25.4-11.3c0,0,3.4-1.8,5.1-2.6
			c3.5-1.6,7.1-3.2,10.6-4.8c1-0.5,2-0.9,3-1.3c4.7-2.1,9.4-4.1,14-6.2c4.7-2.1,9.3-4.1,14-6.2c10.3-4.6,20.6-9.3,30.9-13.8
			c2.5-1.1,5.1-1.5,7.8-0.7c3.1,0.9,6.2,2.1,9.3,2.9c4,1.1,9,1.2,10,1.5C363.9,404.6,364.1,396.8,363.7,396.6z"/>
		<path class="st2" d="M89,504.1c0.9-1.3,2.1-1.3,3.2-1.4c4.3-0.5,8.5-1,12.8-1.6c1.1-0.1,2.2-0.3,3.3-0.6c1.7-0.4,2.9-1.4,3.7-3
			c2.4-4.9,2.7-10,1.1-15.2c-0.8-2.6-1.9-5.2-3.5-7.5c-1.4-2.1-3.2-3.2-6-2.7c-5,0.9-10.1,1.4-15.2,2c-0.9,0.1-1.8,0.1-3,0.2
			c0.4-0.9,0.5-1.5,0.8-1.9c5.5-5.5,11.6-10.3,18.5-13.9c2-1.1,4.4-1.8,6.6-2.3c5.5-1.2,9.9,0.9,13.8,4.6c3.8,3.7,6.2,8.4,8,13.3
			c2.4,6.8,3.6,13.8,2.9,21.1c-0.3,3.1-0.6,6.3-1.9,9.2c-1.6,3.7-4,6.8-7.2,9.3c-2.8,2.2-6.2,2.6-9.6,2.6c-2.3,0-4.6-0.6-6.9-1.1
			c-2.3-0.5-4.6-1.1-6.7-2c-4.3-1.9-8.5-4-12.2-6.8C90.6,505.8,89.8,504.9,89,504.1z"/>
		<path class="st2" d="M391.5,358.7c-1.3,0.4-2,0.7-2.7,0.8c-4.1,0.5-8.1,1-12.2,1.5c-0.5,0.1-1,0.1-1.5,0.2
			c-5.6,0.8-7.5,2.8-8.4,8.4c-1.1,6.2,0.9,11.7,3.8,17c0.7,1.2,1.9,2.1,2.9,3.2c3.6-0.4,7.1-0.7,10.5-1.1c3.3-0.4,6.7-0.9,10-1.3
			c0.6,1.3,0,1.9-0.7,2.5c-3.8,3.5-7.7,7-12.2,9.8c-2.5,1.5-5.1,3.1-7.7,4.3c-4.2,2-8.7,2.4-13,0.3c-2.8-1.4-5.1-3.3-7-5.8
			c-4.7-6.2-7.1-13.3-8.2-20.9c-0.8-5.4-0.8-10.8,0.4-16.1c1.5-6.5,4.9-11.6,11.3-14.3c3.5-1.5,7.2-1.3,10.8-0.6
			c3.2,0.7,6.3,1.8,9.3,2.9c4.2,1.5,8,4,11.7,6.5C389.5,356.5,390.3,357.5,391.5,358.7z"/>
	</g>
	<g class="st1">
		<path class="st2" d="M343.9,507.3c-0.3-4.4-1.4-3.5,0.6-7.4c4.5-9.2,10.3-14.8,18.6-20.8c0.4-0.3,3.5-10.1,3.8-10.5
			c-1.9,0-13.4,1.6-15.1,2c-4.3,1.1-8.5,1.3-12.5-0.9c-3.4-1.8-6.9-3.5-10.4-5.3c-19.4-9.8-38.8-19.6-58.2-29.4
			c-3.1-1.6-6.2-3.1-9.3-4.7c-1-0.5-2.7-1.5-2.7-1.5l-25.5-12.9c-1.2-0.5-2.2-0.8-3.1-1.2c-0.6-0.3-1.1-0.6-1.7-0.9
			c-3.5-1.8-6.9-3.6-10.4-5.3c-12.9-6.5-25.8-13-38.7-19.5c-7.8-3.9-15.5-7.9-23.3-11.8c-2.3-1.1-4.1-2.7-5.1-5
			c-1.3-3.1-2.5-6.2-3.8-9.4c-0.5-1.3-3.3-8.3-6.6-11c-0.4,0.4-4.3,9.1-4.3,9.4c0.3,2.8,5.9,2.8,5,5.4c-2.5,7.6-6.8,14.2-12.3,19.9
			c-3,3.2-20,8.5-23.5,11.7c6.3,2.4,17.5-0.7,18.1-0.8c1.3-0.3,2.5-0.8,3.8-1.1c4.5-1.2,8.9-0.8,13.1,1.3
			c8.3,4.2,16.6,8.4,24.9,12.6c8,4.1,16,8.1,24.1,12.2c8.8,4.4,17.6,8.9,26.4,13.4c1.5,0.8,3,1.5,4.5,2.3c0.6,0.3,1.1,0.7,1.8,1.2
			l24.8,12.6c0,0,3.6,1.5,5.3,2.3c3.5,1.7,6.9,3.5,10.4,5.2c1,0.5,2,1,3,1.5c4.6,2.3,9.1,4.7,13.7,7c4.5,2.3,9.1,4.6,13.6,6.9
			c10.1,5.1,20.2,10.1,30.2,15.2c2.4,1.2,4.4,3.1,5.5,5.6c1.3,3,2.3,6.1,3.6,9.1c1.7,3.8,4.8,7.7,5.1,8.7
			C337.7,512.6,343.9,507.8,343.9,507.3z"/>
		<path class="st2" d="M87,362.2c1.6-0.1,2.3,0.8,3.1,1.6c3.1,3,6.2,6,9.3,8.9c0.8,0.8,1.7,1.5,2.5,2.2c1.4,1.1,2.9,1.4,4.6,1
			c5.3-1.3,9.5-4.2,12.5-8.7c1.5-2.3,2.8-4.7,3.6-7.4c0.7-2.4,0.4-4.5-1.7-6.3c-3.8-3.4-7.5-7-11.2-10.5c-0.6-0.6-1.2-1.3-2.1-2.3
			c0.9-0.3,1.5-0.6,2-0.5c7.8,0.8,15.3,2.5,22.5,5.6c2.1,0.9,4.2,2.2,6,3.7c4.4,3.5,5.6,8.3,5.1,13.7c-0.5,5.3-2.5,10.1-5.3,14.6
			c-3.7,6.2-8.4,11.5-14.5,15.5c-2.6,1.7-5.3,3.5-8.3,4.4c-3.9,1.1-7.8,1.2-11.8,0.3c-3.5-0.8-6-3.1-8.1-5.8c-1.4-1.8-2.5-4-3.5-6.1
			s-2-4.3-2.7-6.5c-1.3-4.5-2.3-9.1-2.4-13.8C86.7,364.5,86.9,363.4,87,362.2z"/>
		<path class="st2" d="M390.8,504.9c-1.1-0.8-1.8-1.1-2.3-1.7c-3-2.8-5.9-5.6-8.9-8.5c-0.4-0.4-0.7-0.7-1.1-1.1
			c-4.1-3.8-6.9-4-11.9-1.2c-5.5,3.1-8.5,8.1-10.7,13.7c-0.5,1.3-0.4,2.8-0.6,4.2c2.6,2.6,5,5,7.5,7.4c2.4,2.3,4.9,4.6,7.3,6.9
			c-0.6,1.3-1.5,1.2-2.4,1c-5.2-0.8-10.3-1.5-15.3-3.3c-2.8-1-5.6-2-8.2-3.3c-4.2-2.1-7.3-5.2-8.4-9.9c-0.7-3-0.7-6.1,0.1-9.1
			c1.9-7.5,5.8-13.9,11-19.6c3.7-4,7.8-7.5,12.8-9.9c6-2.9,12.1-3.6,18.2-0.3c3.4,1.8,5.6,4.8,7.3,8c1.5,2.9,2.6,6,3.7,9.1
			c1.5,4.3,2,8.7,2.3,13.2C391.3,502,391,503.2,390.8,504.9z"/>
	</g>
</g>
<g>
	<g id="Logo_1_">
		<g>
			<path class="st7" d="M59.4,626.4c2.6,1,3.3,1.8,4.1,1.8c151.1,0.3,302.2,0.3,453.2,0.3c2.6,0,5.1-0.3,7.7-0.5
				c0.3,0,0.8-0.3,1-0.5c0.3-0.3,1.5-0.5,1.5-1.5c0-3.6,0-7.9,0-12c0-52.5,0-105,0-157.5c0-5.1,0.3-10.2-0.3-15.4
				c-1.8-20-10-36.6-26.9-48.4c-12.5-8.7-27.1-12.3-42.3-12.3c-105.5-0.3-210.7,0-316.2-0.3c-11.5,0-22.8,1.3-34.1,4.1
				c-10,2.6-17.9,7.4-25.4,13.8c-17.7,15.1-23.3,35.3-23.6,57.1c-0.5,53.3-0.3,106.8-0.3,160C58.9,618.7,59.1,622.5,59.4,626.4z
				 M292.9,648.6c-46.1,0-91.9,0-138,0c-3.3,0-7.2-0.8-10.2,0.3c-3.3,1.3-7.2,3.6-8.7,6.7c-4.6,9,0,17.7,10,20.2
				c3.6,0.8,7.7,1,11.3,1c17.9,0,35.8,0,53.8,0c72,0,143.9,0,216.1,0c5.9,0,12-0.8,17.4-2.6c8.5-2.8,10.2-12.8,4.9-20
				c-3.8-5.1-9-5.6-14.6-5.6C387.4,648.6,340.3,648.6,292.9,648.6z M294,720.6c30.2,0,60.7,0,90.9,0c3.3,0,6.9,0.3,10.2-0.3
				c5.6-1,9-4.9,10.8-9.7c1.5-4.4-0.3-7.9-3.6-11.5c-4.4-4.6-9-6.9-15.6-6.9c-62,0.3-123.7,0.3-185.7,0.3c-1.8,0-3.3-0.3-5.1,0
				c-7.2,1-13.1,8.5-12.3,15.6c0.8,6.1,4.4,13.6,13.1,12.8c3.1-0.3,5.9,0,9,0C235.1,720.6,264.5,720.6,294,720.6z M286.3,322.2
				L286.3,322.2c0,7.7,0,16.6,0.3,24.6c0.3,7.9,3.3,11.5,10.2,12.3c8.2,1,12.5-1.5,14.6-9c0.8-3.3,0.8-6.7,0.8-10
				c0-12.8,0.3-25.6,0-38.4c-0.3-5.6,1.3-9.7,5.6-13.6c8.2-7.4,5.6-16.9,4.6-27.9c-2-20.7-14.6-22-35.6-18.4
				c-16.4,2.8-9.5,33-9.5,41.7c8.5,8.2,9.7,16.9,9.2,27.1C286,314.7,286.3,319.6,286.3,322.2z"/>
			<path class="st7" d="M59.4,626.4c-0.3-3.8-0.8-7.7-0.8-11.3c0-53.3-0.5-106.8,0.3-160c0.3-21.8,5.9-42,23.6-57.1
				c7.4-6.4,15.4-11.3,25.4-13.8c11.3-2.8,22.5-4.1,34.1-4.1c105.5,0,210.7,0,316.2,0.3c15.1,0,29.4,3.6,42.3,12.3
				c16.6,11.8,25.1,28.2,26.9,48.4c0.5,5.1,0.3,10.2,0.3,15.4c0,52.5,0,105,0,157.5c0,4.4,0,8.5,0,12c0,1-1.3,1.3-1.5,1.5
				c-0.3,0.3-0.8,0.5-1,0.5c-2.6,0.3-5.1,0.5-7.7,0.5c-151.1,0-302.2-0.3-453.2-0.3C62.7,628.2,62,627.4,59.4,626.4z M404.1,443.5
				c-25.6-1.8-43.3,22.8-43,42.5c0.3,22,14.9,44,43,44s42.5-22,43.3-44C448.1,467.6,429.4,441.5,404.1,443.5z M189.7,443.5
				c-25.9-1.3-43.3,20.2-43.5,43c-0.3,20,15.6,42.5,42.3,43.8c21.8,1,44.3-20,43.8-42.5C231.5,462.2,215.1,443.5,189.7,443.5z"/>
			<path class="st7" d="M292.9,648.6c47.4,0,94.5,0,141.9,0c5.9,0,10.8,0.5,14.6,5.6c5.4,6.9,3.6,17.2-4.9,20
				c-5.6,1.8-11.5,2.6-17.4,2.6c-72,0.3-143.9,0-216.1,0c-17.9,0-35.8,0-53.8,0c-3.8,0-7.7-0.3-11.3-1c-10-2.3-14.6-11.3-10-20.2
				c1.5-2.8,5.4-5.4,8.7-6.7c3.1-1,6.7-0.3,10.2-0.3C200.7,648.6,246.8,648.6,292.9,648.6z"/>
			<path class="st7" d="M294,720.6c-29.4,0-58.9,0-88.3,0c-3.1,0-5.9-0.3-9,0c-8.7,1-12.3-6.4-13.1-12.8
				c-0.8-6.9,5.1-14.3,12.3-15.6c1.8-0.3,3.3,0,5.1,0c62,0,123.7,0,185.7-0.3c6.7,0,11.3,2.3,15.6,6.9c3.3,3.3,5.1,7.2,3.6,11.5
				c-1.8,4.9-5.4,9-10.8,9.7c-3.3,0.5-6.9,0.3-10.2,0.3C354.6,720.6,324.4,720.6,294,720.6z"/>
			<path class="st7" d="M317.5,288.1c-4.1,3.8-5.6,7.9-5.6,13.6c0.3,12.8,0.3,25.6,0,38.4c0,3.3,0,6.9-0.8,10.2
				c-2,7.4-6.4,10-14.6,9c-6.9-0.8-10-4.6-10.2-12.5c-0.3-8.2,0-16.9,0-24.6l0,0c0-2.6-0.3-7.4,0-11.3c0.8-10.5-0.8-19.2-9.2-27.4"
				/>
			<path class="st8" d="M404.1,443.5c25.4-2,44,24.1,43.3,42.5c-0.8,22-15.1,44-43.3,44s-43-22-43-44
				C360.8,466.3,378.5,441.7,404.1,443.5z"/>
			<path class="st8" d="M189.7,443.5c25.6,0,41.7,18.7,42.5,44.3c0.5,22.5-22,43.8-43.8,42.5c-26.9-1.3-42.5-23.8-42.3-43.8
				C146.2,463.8,163.6,442.3,189.7,443.5z"/>
		</g>
	</g>
	<g id="Layer_4">
		<g>
			<path class="st8" d="M299.8,235.6c16.4,0,29.7,13.3,29.7,29.7S316.2,295,299.8,295s-29.7-13.3-29.7-29.7
				C270.1,248.9,283.7,235.6,299.8,235.6z"/>
			<path class="st8" d="M413.5,294.8h-42c0-55.6-45.6-101.1-101.1-101.1v-42C348.8,151.6,413.5,216.4,413.5,294.8z"/>
			<path class="st8" d="M443,294.8c0-94.7-78.1-172.8-172.8-172.8V79c118.6,0,215.9,97.6,215.9,215.9L443,294.8L443,294.8z"/>
		</g>
	</g>
</g>
</svg>
